<mxfile host="app.diagrams.net" modified="2023-11-02T22:55:12.255Z" agent="Mozilla/5.0 (Macintosh; Intel Mac OS X 10_15_7) AppleWebKit/605.1.15 (KHTML, like Gecko) Version/15.4 Safari/605.1.15" etag="rgJVwTLhVWXtv27yymYR" version="22.0.8" type="github">
  <diagram name="Page-1" id="0Aqso-qwS6Z3J9IVTtWJ">
    <mxGraphModel dx="1195" dy="693" grid="1" gridSize="10" guides="1" tooltips="1" connect="1" arrows="1" fold="1" page="1" pageScale="1" pageWidth="1169" pageHeight="827" math="0" shadow="0">
      <root>
        <mxCell id="0" />
        <mxCell id="1" parent="0" />
        <mxCell id="vTHljmjJwnldgzH6gSCa-15" value="" style="group" vertex="1" connectable="0" parent="1">
          <mxGeometry y="120" width="286" height="200" as="geometry" />
        </mxCell>
        <mxCell id="vTHljmjJwnldgzH6gSCa-3" value="" style="rounded=0;whiteSpace=wrap;html=1;" vertex="1" parent="vTHljmjJwnldgzH6gSCa-15">
          <mxGeometry width="286" height="200" as="geometry" />
        </mxCell>
        <mxCell id="vTHljmjJwnldgzH6gSCa-4" value="R1 - &quot;9.0.1.1&quot;&lt;br&gt;11.0.0.0/8" style="rounded=1;whiteSpace=wrap;html=1;" vertex="1" parent="vTHljmjJwnldgzH6gSCa-15">
          <mxGeometry x="170" width="116" height="40" as="geometry" />
        </mxCell>
        <mxCell id="vTHljmjJwnldgzH6gSCa-5" value="&lt;b&gt;eth 3 &lt;/b&gt;(to AS2)&lt;br&gt;9.0.0.1/24&lt;br&gt;&lt;b&gt;eth 4 &lt;/b&gt;(to AS3)&lt;br&gt;9.0.1.1/24" style="rounded=0;whiteSpace=wrap;html=1;" vertex="1" parent="vTHljmjJwnldgzH6gSCa-15">
          <mxGeometry x="170" y="40" width="116" height="80" as="geometry" />
        </mxCell>
        <mxCell id="vTHljmjJwnldgzH6gSCa-6" value="&lt;b&gt;eth 1&amp;nbsp;&lt;/b&gt;(h1-1)&lt;br&gt;11.0.1.1/24&lt;br&gt;&lt;b&gt;eth 2&amp;nbsp;&lt;/b&gt;(h1-2)&lt;br&gt;11.0.2.1/24" style="rounded=0;whiteSpace=wrap;html=1;" vertex="1" parent="vTHljmjJwnldgzH6gSCa-15">
          <mxGeometry x="170" y="120" width="116" height="80" as="geometry" />
        </mxCell>
        <mxCell id="vTHljmjJwnldgzH6gSCa-13" style="edgeStyle=orthogonalEdgeStyle;rounded=0;orthogonalLoop=1;jettySize=auto;html=1;exitX=1;exitY=0.5;exitDx=0;exitDy=0;exitPerimeter=0;entryX=0;entryY=0.25;entryDx=0;entryDy=0;" edge="1" parent="vTHljmjJwnldgzH6gSCa-15" source="vTHljmjJwnldgzH6gSCa-7" target="vTHljmjJwnldgzH6gSCa-6">
          <mxGeometry relative="1" as="geometry">
            <Array as="points">
              <mxPoint x="130" y="50" />
              <mxPoint x="130" y="140" />
            </Array>
          </mxGeometry>
        </mxCell>
        <mxCell id="vTHljmjJwnldgzH6gSCa-7" value="" style="fontColor=#0066CC;verticalAlign=top;verticalLabelPosition=bottom;labelPosition=center;align=center;html=1;outlineConnect=0;fillColor=#CCCCCC;strokeColor=#6881B3;gradientColor=none;gradientDirection=north;strokeWidth=2;shape=mxgraph.networks.monitor;" vertex="1" parent="vTHljmjJwnldgzH6gSCa-15">
          <mxGeometry x="27.5" y="30" width="40" height="40" as="geometry" />
        </mxCell>
        <mxCell id="vTHljmjJwnldgzH6gSCa-9" value="h1-1&lt;br&gt;11.0.1.254/24" style="text;html=1;strokeColor=none;fillColor=none;align=center;verticalAlign=middle;whiteSpace=wrap;rounded=0;" vertex="1" parent="vTHljmjJwnldgzH6gSCa-15">
          <mxGeometry x="20" y="75" width="55" height="30" as="geometry" />
        </mxCell>
        <mxCell id="vTHljmjJwnldgzH6gSCa-12" style="edgeStyle=orthogonalEdgeStyle;rounded=0;orthogonalLoop=1;jettySize=auto;html=1;exitX=1;exitY=0.5;exitDx=0;exitDy=0;exitPerimeter=0;entryX=0;entryY=0.75;entryDx=0;entryDy=0;" edge="1" parent="vTHljmjJwnldgzH6gSCa-15" source="vTHljmjJwnldgzH6gSCa-10" target="vTHljmjJwnldgzH6gSCa-6">
          <mxGeometry relative="1" as="geometry" />
        </mxCell>
        <mxCell id="vTHljmjJwnldgzH6gSCa-10" value="" style="fontColor=#0066CC;verticalAlign=top;verticalLabelPosition=bottom;labelPosition=center;align=center;html=1;outlineConnect=0;fillColor=#CCCCCC;strokeColor=#6881B3;gradientColor=none;gradientDirection=north;strokeWidth=2;shape=mxgraph.networks.monitor;" vertex="1" parent="vTHljmjJwnldgzH6gSCa-15">
          <mxGeometry x="27.5" y="110" width="40" height="40" as="geometry" />
        </mxCell>
        <mxCell id="vTHljmjJwnldgzH6gSCa-11" value="h1-2&lt;br&gt;11.0.2.254/24" style="text;html=1;strokeColor=none;fillColor=none;align=center;verticalAlign=middle;whiteSpace=wrap;rounded=0;" vertex="1" parent="vTHljmjJwnldgzH6gSCa-15">
          <mxGeometry x="20" y="155" width="55" height="30" as="geometry" />
        </mxCell>
        <mxCell id="vTHljmjJwnldgzH6gSCa-14" value="&lt;b&gt;&lt;font style=&quot;font-size: 16px;&quot;&gt;AS 1&lt;/font&gt;&lt;/b&gt;" style="text;html=1;strokeColor=none;fillColor=none;align=center;verticalAlign=middle;whiteSpace=wrap;rounded=0;" vertex="1" parent="vTHljmjJwnldgzH6gSCa-15">
          <mxGeometry x="113" width="60" height="30" as="geometry" />
        </mxCell>
        <mxCell id="vTHljmjJwnldgzH6gSCa-52" value="" style="group" vertex="1" connectable="0" parent="1">
          <mxGeometry x="600" y="120" width="286" height="200" as="geometry" />
        </mxCell>
        <mxCell id="vTHljmjJwnldgzH6gSCa-53" value="" style="rounded=0;whiteSpace=wrap;html=1;" vertex="1" parent="vTHljmjJwnldgzH6gSCa-52">
          <mxGeometry width="286" height="200" as="geometry" />
        </mxCell>
        <mxCell id="vTHljmjJwnldgzH6gSCa-65" style="edgeStyle=orthogonalEdgeStyle;rounded=0;orthogonalLoop=1;jettySize=auto;html=1;exitX=0;exitY=0.5;exitDx=0;exitDy=0;exitPerimeter=0;entryX=1;entryY=0.25;entryDx=0;entryDy=0;" edge="1" parent="vTHljmjJwnldgzH6gSCa-52" source="vTHljmjJwnldgzH6gSCa-58" target="vTHljmjJwnldgzH6gSCa-56">
          <mxGeometry relative="1" as="geometry" />
        </mxCell>
        <mxCell id="vTHljmjJwnldgzH6gSCa-58" value="" style="fontColor=#0066CC;verticalAlign=top;verticalLabelPosition=bottom;labelPosition=center;align=center;html=1;outlineConnect=0;fillColor=#CCCCCC;strokeColor=#6881B3;gradientColor=none;gradientDirection=north;strokeWidth=2;shape=mxgraph.networks.monitor;" vertex="1" parent="vTHljmjJwnldgzH6gSCa-52">
          <mxGeometry x="227.5" y="40" width="40" height="40" as="geometry" />
        </mxCell>
        <mxCell id="vTHljmjJwnldgzH6gSCa-59" value="h2-1&lt;br&gt;12.0.1.254/24" style="text;html=1;strokeColor=none;fillColor=none;align=center;verticalAlign=middle;whiteSpace=wrap;rounded=0;" vertex="1" parent="vTHljmjJwnldgzH6gSCa-52">
          <mxGeometry x="220" y="85" width="55" height="30" as="geometry" />
        </mxCell>
        <mxCell id="vTHljmjJwnldgzH6gSCa-66" style="edgeStyle=orthogonalEdgeStyle;rounded=0;orthogonalLoop=1;jettySize=auto;html=1;exitX=0;exitY=0.5;exitDx=0;exitDy=0;exitPerimeter=0;entryX=1;entryY=0.75;entryDx=0;entryDy=0;" edge="1" parent="vTHljmjJwnldgzH6gSCa-52" source="vTHljmjJwnldgzH6gSCa-61" target="vTHljmjJwnldgzH6gSCa-56">
          <mxGeometry relative="1" as="geometry">
            <Array as="points">
              <mxPoint x="190" y="140" />
              <mxPoint x="190" y="180" />
            </Array>
          </mxGeometry>
        </mxCell>
        <mxCell id="vTHljmjJwnldgzH6gSCa-61" value="" style="fontColor=#0066CC;verticalAlign=top;verticalLabelPosition=bottom;labelPosition=center;align=center;html=1;outlineConnect=0;fillColor=#CCCCCC;strokeColor=#6881B3;gradientColor=none;gradientDirection=north;strokeWidth=2;shape=mxgraph.networks.monitor;" vertex="1" parent="vTHljmjJwnldgzH6gSCa-52">
          <mxGeometry x="227.5" y="120" width="40" height="40" as="geometry" />
        </mxCell>
        <mxCell id="vTHljmjJwnldgzH6gSCa-62" value="h2-2&lt;br&gt;12.0.2.254/24" style="text;html=1;strokeColor=none;fillColor=none;align=center;verticalAlign=middle;whiteSpace=wrap;rounded=0;" vertex="1" parent="vTHljmjJwnldgzH6gSCa-52">
          <mxGeometry x="220" y="165" width="55" height="30" as="geometry" />
        </mxCell>
        <mxCell id="vTHljmjJwnldgzH6gSCa-63" value="&lt;b&gt;&lt;font style=&quot;font-size: 16px;&quot;&gt;AS 2&lt;/font&gt;&lt;/b&gt;" style="text;html=1;strokeColor=none;fillColor=none;align=center;verticalAlign=middle;whiteSpace=wrap;rounded=0;" vertex="1" parent="vTHljmjJwnldgzH6gSCa-52">
          <mxGeometry x="113" width="60" height="30" as="geometry" />
        </mxCell>
        <mxCell id="vTHljmjJwnldgzH6gSCa-54" value="R2 - &quot;9.0.2.1&quot;&lt;br&gt;12.0.0.0/8" style="rounded=1;whiteSpace=wrap;html=1;" vertex="1" parent="vTHljmjJwnldgzH6gSCa-52">
          <mxGeometry width="116" height="40" as="geometry" />
        </mxCell>
        <mxCell id="vTHljmjJwnldgzH6gSCa-55" value="&lt;b&gt;eth 3 &lt;/b&gt;(to AS1)&lt;br&gt;9.0.0.2/24&lt;br&gt;&lt;b&gt;eth 4 &lt;/b&gt;(to AS3)&lt;br&gt;9.0.2.1/24" style="rounded=0;whiteSpace=wrap;html=1;" vertex="1" parent="vTHljmjJwnldgzH6gSCa-52">
          <mxGeometry y="40" width="116" height="80" as="geometry" />
        </mxCell>
        <mxCell id="vTHljmjJwnldgzH6gSCa-56" value="&lt;b&gt;eth 1&amp;nbsp;&lt;/b&gt;(h2-1)&lt;br&gt;12.0.1.1/24&lt;br&gt;&lt;b&gt;eth 2&amp;nbsp;&lt;/b&gt;(h1-2)&lt;br&gt;12.0.2.1/24" style="rounded=0;whiteSpace=wrap;html=1;" vertex="1" parent="vTHljmjJwnldgzH6gSCa-52">
          <mxGeometry y="120" width="116" height="80" as="geometry" />
        </mxCell>
        <mxCell id="vTHljmjJwnldgzH6gSCa-67" style="edgeStyle=orthogonalEdgeStyle;rounded=0;orthogonalLoop=1;jettySize=auto;html=1;exitX=1;exitY=0.25;exitDx=0;exitDy=0;entryX=0;entryY=0.25;entryDx=0;entryDy=0;endArrow=none;endFill=0;" edge="1" parent="1" source="vTHljmjJwnldgzH6gSCa-5" target="vTHljmjJwnldgzH6gSCa-55">
          <mxGeometry relative="1" as="geometry" />
        </mxCell>
      </root>
    </mxGraphModel>
  </diagram>
</mxfile>
